<svg width="48" height="48" viewBox="0 0 48 48" fill="none" xmlns="http://www.w3.org/2000/svg">
<path d="M48 6.58287V28.9824C48.0004 30.1376 47.5682 31.2504 46.7899 32.0981C46.0117 32.9459 44.9447 33.4662 43.8025 33.5549V12.7929C43.7995 11.0304 43.1031 9.34106 41.8661 8.0957C40.6293 6.85033 38.9529 6.15068 37.2052 6.1503H12.6638C12.7732 5.01589 13.2967 3.96295 14.1329 3.19597C14.9689 2.429 16.0578 2.00274 17.1881 2H43.4452C44.6512 2.00054 45.8078 2.48321 46.6617 3.34226C47.5156 4.20126 47.9968 5.3666 48 6.58287ZM37.2052 8.21004H10.9481C9.81728 8.21095 8.72736 8.63663 7.89088 9.40393C7.05445 10.1713 6.53141 11.2253 6.42379 12.3604H30.8119C32.5598 12.3635 34.235 13.0658 35.47 14.3131C36.7049 15.5603 37.3988 17.2506 37.3991 19.0133V39.7753C38.5707 39.7276 39.6784 39.2253 40.4912 38.3731C41.3038 37.5209 41.7586 36.3851 41.76 35.2028V12.793C41.7568 11.5768 41.2756 10.4114 40.4217 9.55232C39.568 8.69326 38.4112 8.21057 37.2052 8.21004ZM35.3618 19.0095V41.409C35.3604 42.6261 34.8802 43.7932 34.0267 44.6538C33.1732 45.5145 32.0158 45.9985 30.8089 46H4.55285C3.34581 45.9985 2.18859 45.5145 1.33506 44.6538C0.481547 43.7932 0.001424 42.6261 0 41.409V19.0095C0.00131733 17.7922 0.481387 16.6251 1.33492 15.7643C2.18844 14.9035 3.34571 14.4193 4.55285 14.4178H30.8089C32.016 14.4193 33.1733 14.9035 34.0268 15.7643C34.8804 16.6251 35.3604 17.792 35.3618 19.0095ZM25.634 30.2079C25.637 29.9439 25.5692 29.6841 25.438 29.4557C25.3068 29.2275 25.117 29.0389 24.8885 28.9102L14.0017 22.5662C13.7755 22.4327 13.5183 22.3615 13.2561 22.3603C12.8598 22.3631 12.4806 22.5239 12.2013 22.8076C11.922 23.0912 11.7652 23.4746 11.7651 23.8742V36.5416C11.7641 36.806 11.8323 37.0659 11.9627 37.2954C12.0932 37.5247 12.2813 37.7155 12.5082 37.8482C12.735 37.9808 12.9925 38.0507 13.2547 38.0509C13.517 38.0512 13.7746 37.9817 14.0017 37.8495L24.8885 31.5159C25.1166 31.3839 25.3058 31.1934 25.4368 30.9636C25.5676 30.7337 25.6357 30.4729 25.634 30.2079Z" fill="#0068FF"/>
</svg>
