<svg width="48" height="48" viewBox="0 0 48 48" fill="none" xmlns="http://www.w3.org/2000/svg">
<g clip-path="url(#clip0_3215_2050)">
<mask id="mask0_3215_2050" style="mask-type:luminance" maskUnits="userSpaceOnUse" x="0" y="0" width="48" height="48">
<path d="M48 0H0V48H48V0Z" fill="white"/>
</mask>
<g mask="url(#mask0_3215_2050)">
<path d="M37.7143 18.25H10.2857C8.61901 18.2512 7.02092 18.8954 5.84238 20.0412C4.66384 21.187 4.00121 22.7407 4 24.3611V42.1389C4.00121 43.7593 4.66384 45.313 5.84238 46.4588C7.02092 47.6046 8.61901 48.2488 10.2857 48.25H37.7143C39.381 48.2488 40.9791 47.6046 42.1576 46.4588C43.3362 45.313 43.9988 43.7593 44 42.1389V24.3611C43.9988 22.7407 43.3362 21.187 42.1576 20.0412C40.9791 18.8954 39.381 18.2512 37.7143 18.25ZM21.5863 35.2144C21.7547 35.367 21.8898 35.551 21.9835 35.7555C22.0772 35.9599 22.1276 36.1806 22.1316 36.4044C22.1357 36.6282 22.0934 36.8505 22.0071 37.058C21.9209 37.2655 21.7926 37.454 21.6298 37.6123C21.467 37.7706 21.2731 37.8953 21.0597 37.9792C20.8462 38.063 20.6176 38.1042 20.3874 38.1002C20.1572 38.0963 19.9302 38.0473 19.7199 37.9562C19.5096 37.8651 19.3204 37.7337 19.1634 37.57L17.1429 35.6078L15.1223 37.57C14.9653 37.7337 14.7761 37.8651 14.5658 37.9562C14.3555 38.0473 14.1285 38.0963 13.8983 38.1002C13.6682 38.1042 13.4395 38.063 13.2261 37.9792C13.0126 37.8953 12.8187 37.7706 12.6559 37.6123C12.4931 37.454 12.3648 37.2655 12.2786 37.058C12.1924 36.8505 12.15 36.6282 12.1541 36.4044C12.1581 36.1806 12.2085 35.9599 12.3022 35.7555C12.3959 35.551 12.531 35.367 12.6994 35.2144L14.7177 33.25L12.6994 31.2856C12.531 31.133 12.3959 30.949 12.3022 30.7445C12.2085 30.5401 12.1581 30.3194 12.1541 30.0956C12.15 29.8718 12.1924 29.6495 12.2786 29.442C12.3648 29.2345 12.4931 29.046 12.6559 28.8877C12.8187 28.7294 13.0126 28.6047 13.2261 28.5208C13.4395 28.437 13.6682 28.3958 13.8983 28.3998C14.1285 28.4037 14.3555 28.4527 14.5658 28.5438C14.7761 28.6349 14.9653 28.7663 15.1223 28.93L17.1429 30.8922L19.1634 28.93C19.3204 28.7663 19.5096 28.6349 19.7199 28.5438C19.9302 28.4527 20.1572 28.4037 20.3874 28.3998C20.6176 28.3958 20.8462 28.437 21.0597 28.5208C21.2731 28.6047 21.467 28.7294 21.6298 28.8877C21.7926 29.046 21.9209 29.2345 22.0071 29.442C22.0934 29.6495 22.1357 29.8718 22.1316 30.0956C22.1276 30.3194 22.0772 30.5401 21.9835 30.7445C21.8898 30.949 21.7547 31.133 21.5863 31.2856L19.568 33.25L21.5863 35.2144ZM35.3006 35.2144C35.469 35.367 35.6041 35.551 35.6978 35.7555C35.7915 35.9599 35.8419 36.1806 35.8459 36.4044C35.85 36.6282 35.8076 36.8505 35.7214 37.058C35.6352 37.2655 35.5069 37.454 35.3441 37.6123C35.1813 37.7706 34.9874 37.8953 34.7739 37.9792C34.5605 38.063 34.3318 38.1042 34.1017 38.1002C33.8715 38.0963 33.6445 38.0473 33.4342 37.9562C33.2239 37.8651 33.0347 37.7337 32.8777 37.57L30.8571 35.6078L28.8366 37.57C28.6796 37.7337 28.4904 37.8651 28.2801 37.9562C28.0698 38.0473 27.8428 38.0963 27.6126 38.1002C27.3824 38.1042 27.1538 38.063 26.9404 37.9792C26.7269 37.8953 26.533 37.7706 26.3702 37.6123C26.2074 37.454 26.0791 37.2655 25.9929 37.058C25.9066 36.8505 25.8643 36.6282 25.8684 36.4044C25.8724 36.1806 25.9228 35.9599 26.0165 35.7555C26.1102 35.551 26.2453 35.367 26.4137 35.2144L28.432 33.25L26.4137 31.2856C26.2453 31.133 26.1102 30.949 26.0165 30.7445C25.9228 30.5401 25.8724 30.3194 25.8684 30.0956C25.8643 29.8718 25.9066 29.6495 25.9929 29.442C26.0791 29.2345 26.2074 29.046 26.3702 28.8877C26.533 28.7294 26.7269 28.6047 26.9404 28.5208C27.1538 28.437 27.3824 28.3958 27.6126 28.3998C27.8428 28.4037 28.0698 28.4527 28.2801 28.5438C28.4904 28.6349 28.6796 28.7663 28.8366 28.93L30.8571 30.8922L32.8777 28.93C33.0347 28.7663 33.2239 28.6349 33.4342 28.5438C33.6445 28.4527 33.8715 28.4037 34.1017 28.3998C34.3318 28.3958 34.5605 28.437 34.7739 28.5208C34.9874 28.6047 35.1813 28.7294 35.3441 28.8877C35.5069 29.046 35.6352 29.2345 35.7214 29.442C35.8076 29.6495 35.85 29.8718 35.8459 30.0956C35.8419 30.3194 35.7915 30.5401 35.6978 30.7445C35.6041 30.949 35.469 31.133 35.3006 31.2856L33.2823 33.25L35.3006 35.2144Z" fill="#0068FF"/>
<path d="M32.4211 22.25H15.5789C15.1602 22.25 14.7586 22.067 14.4625 21.7413C14.1664 21.4156 14 20.9738 14 20.5132V11.25C14 8.33262 15.0536 5.53473 16.9289 3.47183C18.8043 1.40893 21.3478 0.25 24 0.25C26.6522 0.25 29.1957 1.40893 31.0711 3.47183C32.9464 5.53473 34 8.33262 34 11.25V20.5132C34 20.9738 33.8336 21.4156 33.5375 21.7413C33.2414 22.067 32.8398 22.25 32.4211 22.25ZM17.1579 18.7763H30.8421V11.25C30.8421 9.2539 30.1212 7.33955 28.8381 5.92809C27.555 4.51663 25.8146 3.72368 24 3.72368C22.1854 3.72368 20.445 4.51663 19.1619 5.92809C17.8788 7.33955 17.1579 9.2539 17.1579 11.25V18.7763Z" fill="#0068FF"/>
</g>
</g>
<defs>
<clipPath id="clip0_3215_2050">
<rect width="48" height="48" fill="white"/>
</clipPath>
</defs>
</svg>
