<svg width="48" height="48" viewBox="0 0 48 48" fill="none" xmlns="http://www.w3.org/2000/svg">
<g clip-path="url(#clip0_3215_2059)">
<mask id="mask0_3215_2059" style="mask-type:luminance" maskUnits="userSpaceOnUse" x="0" y="0" width="48" height="48">
<path d="M48 0H0V48H48V0Z" fill="white"/>
</mask>
<g mask="url(#mask0_3215_2059)">
<mask id="mask1_3215_2059" style="mask-type:luminance" maskUnits="userSpaceOnUse" x="-1" y="0" width="48" height="48">
<path d="M47 0H-1V48H47V0Z" fill="white"/>
</mask>
<g mask="url(#mask1_3215_2059)">
<path d="M37 0H9C7.9 0 7 0.9 7 2C7 3.1 7.9 4 9 4H37C38.1 4 39 3.1 39 2C39 0.9 38.1 0 37 0ZM9 48H37C38.1 48 39 47.1 39 46C39 44.9 38.1 44 37 44H9C7.9 44 7 44.9 7 46C7 47.1 7.9 48 9 48ZM39 8H7C4.8 8 3 9.8 3 12V36C3 38.2 4.8 40 7 40H39C41.2 40 43 38.2 43 36V12C43 9.8 41.2 8 39 8ZM23 13.5C25.48 13.5 27.5 15.52 27.5 18C27.5 20.48 25.48 22.5 23 22.5C20.52 22.5 18.5 20.48 18.5 18C18.5 15.52 20.52 13.5 23 13.5ZM33 34H13V31C13 27.66 19.66 26 23 26C26.34 26 33 27.66 33 31V34Z" fill="#0068FF"/>
</g>
</g>
</g>
<defs>
<clipPath id="clip0_3215_2059">
<rect width="48" height="48" fill="white"/>
</clipPath>
</defs>
</svg>
