<svg width="48" height="48" viewBox="0 0 48 48" fill="none" xmlns="http://www.w3.org/2000/svg">
<g clip-path="url(#clip0_3027_2036)">
<path d="M48 42.6667V5.33333C48 2.4 45.6 0 42.6667 0H5.33333C2.4 0 0 2.4 0 5.33333V42.6667C0 45.6 2.4 48 5.33333 48H42.6667C45.6 48 48 45.6 48 42.6667ZM15.7333 29.28L21.3333 36.0267L29.6 25.3867C30.1333 24.6933 31.2 24.6933 31.7333 25.4133L41.0933 37.8933C41.76 38.7733 41.12 40.0267 40.0267 40.0267H8.05333C6.93333 40.0267 6.32 38.7467 7.01333 37.8667L13.6533 29.3333C14.16 28.64 15.1733 28.6133 15.7333 29.28Z" fill="url(#paint0_linear_3027_2036)"/>
</g>
<defs>
<linearGradient id="paint0_linear_3027_2036" x1="24" y1="0" x2="24" y2="48" gradientUnits="userSpaceOnUse">
<stop stop-color="#72A7FA"/>
<stop offset="1" stop-color="#3F80F9"/>
</linearGradient>
<clipPath id="clip0_3027_2036">
<rect width="48" height="48" fill="white"/>
</clipPath>
</defs>
</svg>
